<svg width="58" height="58" viewBox="0 0 58 58" fill="none" xmlns="http://www.w3.org/2000/svg">
<g filter="url(#filter0_d_1_139)">
<path d="M29.7809 24.3912V28.6766L32.6245 31.5211C32.771 31.6675 32.8533 31.8662 32.8533 32.0733C32.8533 32.2805 32.771 32.4791 32.6245 32.6256C32.4781 32.7721 32.2794 32.8544 32.0723 32.8544C31.8651 32.8544 31.6665 32.7721 31.52 32.6256L28.4473 29.5529C28.3006 29.4064 28.2182 29.2076 28.2182 29.0002V24.3912C28.2182 24.184 28.3005 23.9853 28.447 23.8387C28.5936 23.6922 28.7923 23.6099 28.9995 23.6099C29.2068 23.6099 29.4055 23.6922 29.5521 23.8387C29.6986 23.9853 29.7809 24.184 29.7809 24.3912ZM32.0727 19.0005H25.9273C24.2566 18.9979 22.6416 19.6012 21.3818 20.6986V19.7813C21.3818 19.5741 21.2995 19.3754 21.153 19.2288C21.0064 19.0823 20.8077 19 20.6005 19C20.3932 19 20.1945 19.0823 20.0479 19.2288C19.9014 19.3754 19.8191 19.5741 19.8191 19.7813V22.854C19.8196 23.061 19.902 23.2593 20.0483 23.4057C20.1947 23.552 20.393 23.6344 20.6 23.6349H23.6727C23.88 23.6349 24.0787 23.5526 24.2252 23.406C24.3718 23.2595 24.4541 23.0608 24.4541 22.8535C24.4541 22.6463 24.3718 22.4476 24.2252 22.3011C24.0787 22.1545 23.88 22.0722 23.6727 22.0722H22.1955C23.1961 21.1062 24.5319 20.565 25.9227 20.5622H32.0682C33.4901 20.5642 34.8533 21.1299 35.8587 22.1353C36.8642 23.1407 37.4299 24.5038 37.4318 25.9258V32.0711C37.4299 33.493 36.8642 34.8561 35.8587 35.8615C34.8533 36.867 33.4901 37.4327 32.0682 37.4346H25.9227C24.5008 37.4327 23.1376 36.867 22.1322 35.8615C21.1267 34.8561 20.561 33.493 20.5591 32.0711V29.0002C20.5473 28.8015 20.4601 28.6147 20.3152 28.4781C20.1703 28.3415 19.9787 28.2655 19.7795 28.2655C19.5804 28.2655 19.3888 28.3415 19.2439 28.4781C19.099 28.6147 19.0118 28.8015 19 29.0002V32.0729C19.0019 33.9095 19.7324 35.6703 21.0311 36.969C22.3298 38.2676 24.0906 38.9981 25.9273 39H32.0727C33.9094 38.9981 35.6702 38.2676 36.9689 36.969C38.2676 35.6703 38.9981 33.9095 39 32.0729V25.9276C38.9981 24.091 38.2676 22.3302 36.9689 21.0315C35.6702 19.7328 33.9094 19.0024 32.0727 19.0005Z" fill="#7A91D2"/>
</g>
<defs>
<filter id="filter0_d_1_139" x="17" y="17" width="24" height="24" filterUnits="userSpaceOnUse" color-interpolation-filters="sRGB">
<feFlood flood-opacity="0" result="BackgroundImageFix"/>
<feColorMatrix in="SourceAlpha" type="matrix" values="0 0 0 0 0 0 0 0 0 0 0 0 0 0 0 0 0 0 127 0" result="hardAlpha"/>
<feOffset/>
<feGaussianBlur stdDeviation="1"/>
<feColorMatrix type="matrix" values="0 0 0 0 0.0338542 0 0 0 0 0.0677083 0 0 0 0 0.1625 0 0 0 0.4 0"/>
<feBlend mode="normal" in2="BackgroundImageFix" result="effect1_dropShadow_1_139"/>
<feBlend mode="normal" in="SourceGraphic" in2="effect1_dropShadow_1_139" result="shape"/>
</filter>
</defs>
</svg>
