<svg width="58" height="58" viewBox="0 0 58 58" fill="none" xmlns="http://www.w3.org/2000/svg">
<path d="M38.4593 27.7005L30.302 19.5395C30.131 19.3684 29.9281 19.2328 29.7048 19.1402C29.4814 19.0476 29.242 19 29.0003 19C28.7585 19 28.5192 19.0476 28.2958 19.1402C28.0725 19.2328 27.8695 19.3684 27.6986 19.5395L19.5449 27.696L19.5367 27.7042C19.2847 27.9572 19.1117 28.278 19.0388 28.6277C18.9659 28.9773 18.9962 29.3406 19.1261 29.6733C19.256 30.0059 19.4798 30.2936 19.7703 30.5013C20.0608 30.7089 20.4054 30.8275 20.762 30.8426C20.7811 30.8426 20.8002 30.8426 20.8193 30.8426H21.1447V36.8447C21.1455 37.4161 21.3727 37.9639 21.7765 38.3679C22.1804 38.772 22.7279 38.9993 23.2991 39H26.4905C26.6459 38.9998 26.7948 38.9379 26.9045 38.8279C27.0143 38.7179 27.0759 38.5688 27.0759 38.4134V33.7045C27.0764 33.4438 27.1802 33.1938 27.3646 33.0096C27.549 32.8253 27.7989 32.7216 28.0595 32.7214H29.942C30.2026 32.7216 30.4525 32.8253 30.6369 33.0096C30.8213 33.1938 30.9251 33.4438 30.9255 33.7045V38.4134C30.9255 38.5688 30.9872 38.7179 31.0969 38.8279C31.2067 38.9379 31.3556 38.9998 31.5109 39H34.7024C35.2736 38.9993 35.8211 38.772 36.225 38.3679C36.6288 37.9639 36.856 37.4161 36.8568 36.8447V30.8426H37.1585C37.5226 30.8425 37.8785 30.7345 38.1812 30.5323C38.4839 30.33 38.72 30.0425 38.8594 29.7061C38.9989 29.3696 39.0356 28.9994 38.9649 28.6421C38.8942 28.2848 38.7192 27.9566 38.462 27.6987L38.4593 27.7005ZM37.6294 29.4757C37.5674 29.5382 37.4936 29.5877 37.4123 29.6214C37.331 29.6551 37.2438 29.6724 37.1558 29.6722H36.2777C36.1222 29.6722 35.9731 29.734 35.8631 29.844C35.7532 29.954 35.6914 30.1032 35.6914 30.2587V36.8511C35.6909 37.1116 35.5873 37.3614 35.4031 37.5457C35.2189 37.7299 34.9693 37.8337 34.7088 37.8341H32.0963V33.7118C32.0956 33.1402 31.8683 32.5923 31.4642 32.1882C31.0602 31.7841 30.5124 31.5569 29.9411 31.5565H28.0613C27.49 31.5569 26.9422 31.7841 26.5382 32.1882C26.1341 32.5923 25.9068 33.1402 25.9061 33.7118V37.8341H23.3009C23.0404 37.8337 22.7908 37.7299 22.6066 37.5457C22.4224 37.3614 22.3187 37.1116 22.3182 36.8511V30.2587C22.3182 30.1032 22.2565 29.954 22.1465 29.844C22.0366 29.734 21.8874 29.6722 21.7319 29.6722H20.832C20.7006 29.6701 20.5728 29.6294 20.4644 29.555C20.356 29.4806 20.272 29.3759 20.2228 29.254C20.1736 29.1321 20.1615 28.9984 20.1879 28.8696C20.2142 28.7408 20.278 28.6227 20.3712 28.5299L28.5285 20.3689C28.5906 20.3067 28.6644 20.2574 28.7456 20.2237C28.8268 20.1901 28.9138 20.1728 29.0017 20.1728C29.0895 20.1728 29.1765 20.1901 29.2577 20.2237C29.3389 20.2574 29.4127 20.3067 29.4748 20.3689L37.6303 28.5281C37.7551 28.6538 37.8251 28.8238 37.8251 29.001C37.8251 29.1782 37.7551 29.3482 37.6303 29.4739L37.6294 29.4757Z" fill="#7A91D2"/>
</svg>
