<svg width="66" height="66" viewBox="0 0 66 66" fill="none" xmlns="http://www.w3.org/2000/svg">
<g filter="url(#filter0_d_1_118)">
<circle cx="33" cy="29" r="29" fill="url(#paint0_linear_1_118)"/>
</g>
<path d="M43.4074 27.5706L34.4334 18.5934C34.2454 18.4053 34.0222 18.2561 33.7765 18.1542C33.5307 18.0524 33.2674 18 33.0014 18C32.7355 18 32.4721 18.0524 32.2264 18.1542C31.9807 18.2561 31.7575 18.4053 31.5694 18.5934L22.5994 27.5656L22.5904 27.5746C22.3132 27.8529 22.1229 28.2058 22.0427 28.5904C21.9625 28.975 21.9958 29.3746 22.1387 29.7406C22.2816 30.1065 22.5279 30.423 22.8474 30.6514C23.167 30.8798 23.5461 31.0102 23.9384 31.0268C23.9594 31.0268 23.9804 31.0268 24.0014 31.0268H24.3594V37.6292C24.3602 38.2577 24.6102 38.8603 25.0545 39.3047C25.4988 39.7492 26.1011 39.9992 26.7294 40H30.2404C30.4113 39.9997 30.5751 39.9316 30.6959 39.8107C30.8166 39.6897 30.8844 39.5257 30.8844 39.3548V34.1749C30.885 33.8881 30.9992 33.6132 31.202 33.4105C31.4048 33.2078 31.6797 33.0938 31.9664 33.0935H34.0374C34.3242 33.0938 34.5991 33.2078 34.8019 33.4105C35.0047 33.6132 35.1189 33.8881 35.1194 34.1749V39.3548C35.1194 39.5257 35.1873 39.6897 35.308 39.8107C35.4288 39.9316 35.5926 39.9997 35.7634 40H39.2744C39.9028 39.9992 40.5051 39.7492 40.9494 39.3047C41.3937 38.8603 41.6437 38.2577 41.6444 37.6292V31.0268H41.9764C42.3769 31.0268 42.7684 30.908 43.1015 30.6855C43.4345 30.463 43.6942 30.1467 43.8476 29.7767C44.0011 29.4066 44.0415 28.9993 43.9636 28.6063C43.8858 28.2133 43.6933 27.8522 43.4104 27.5686L43.4074 27.5706ZM42.4944 29.5233C42.4262 29.592 42.345 29.6465 42.2556 29.6835C42.1662 29.7206 42.0703 29.7396 41.9734 29.7394H41.0074C40.8364 29.7394 40.6723 29.8073 40.5514 29.9284C40.4304 30.0494 40.3624 30.2135 40.3624 30.3846V37.6362C40.3619 37.9228 40.2479 38.1976 40.0452 38.4002C39.8426 38.6029 39.568 38.717 39.2814 38.7175H36.4074V34.1829C36.4067 33.5542 36.1566 32.9515 35.7121 32.507C35.2676 32.0625 34.6649 31.8126 34.0364 31.8121H31.9684C31.34 31.8126 30.7373 32.0625 30.2928 32.507C29.8483 32.9515 29.5982 33.5542 29.5974 34.1829V38.7175H26.7314C26.4449 38.717 26.1703 38.6029 25.9676 38.4002C25.765 38.1976 25.651 37.9228 25.6504 37.6362V30.3846C25.6504 30.2135 25.5825 30.0494 25.4615 29.9284C25.3406 29.8073 25.1765 29.7394 25.0054 29.7394H24.0154C23.8709 29.7371 23.7302 29.6923 23.611 29.6105C23.4918 29.5287 23.3993 29.4135 23.3452 29.2794C23.2911 29.1453 23.2777 28.9982 23.3068 28.8565C23.3358 28.7149 23.406 28.5849 23.5084 28.4829L32.4824 19.5058C32.5508 19.4374 32.6319 19.3831 32.7212 19.3461C32.8106 19.3091 32.9063 19.29 33.0029 19.29C33.0996 19.29 33.1953 19.3091 33.2846 19.3461C33.374 19.3831 33.4551 19.4374 33.5234 19.5058L42.4954 28.4809C42.6327 28.6192 42.7098 28.8062 42.7098 29.0011C42.7098 29.196 42.6327 29.383 42.4954 29.5213L42.4944 29.5233Z" fill="white"/>
<defs>
<filter id="filter0_d_1_118" x="0" y="0" width="66" height="66" filterUnits="userSpaceOnUse" color-interpolation-filters="sRGB">
<feFlood flood-opacity="0" result="BackgroundImageFix"/>
<feColorMatrix in="SourceAlpha" type="matrix" values="0 0 0 0 0 0 0 0 0 0 0 0 0 0 0 0 0 0 127 0" result="hardAlpha"/>
<feOffset dy="4"/>
<feGaussianBlur stdDeviation="2"/>
<feColorMatrix type="matrix" values="0 0 0 0 0 0 0 0 0 0 0 0 0 0 0 0 0 0 0.25 0"/>
<feBlend mode="normal" in2="BackgroundImageFix" result="effect1_dropShadow_1_118"/>
<feBlend mode="normal" in="SourceGraphic" in2="effect1_dropShadow_1_118" result="shape"/>
</filter>
<linearGradient id="paint0_linear_1_118" x1="46" y1="2.7747e-08" x2="23" y2="58" gradientUnits="userSpaceOnUse">
<stop stop-color="#5D9EFF"/>
<stop offset="1" stop-color="#7751FD"/>
</linearGradient>
</defs>
</svg>
