<svg width="50" height="56" viewBox="0 0 50 56" fill="none" xmlns="http://www.w3.org/2000/svg">
<g filter="url(#filter0_dd_2346_495)">
<circle cx="25" cy="28" r="20" fill="url(#paint0_linear_2346_495)"/>
</g>
<g clip-path="url(#clip0_2346_495)">
<path d="M24.9971 30.9066C24.3279 30.9066 23.7836 31.4492 23.7836 32.1158C23.7836 32.7826 24.3279 33.3254 24.9971 33.3254C25.6664 33.3254 26.2108 32.7826 26.2108 32.1158C26.2108 31.4492 25.6663 30.9066 24.9971 30.9066Z" fill="white"/>
<path d="M27.9577 29.2591C27.1677 28.4695 26.1161 28.0345 24.997 28.0345C23.8823 28.0345 22.8335 28.4666 22.0437 29.2513C21.7247 29.5687 21.7241 30.0859 22.0424 30.4039C22.197 30.5587 22.4028 30.6437 22.6218 30.6437C22.8399 30.6437 23.045 30.5592 23.1993 30.4057C23.68 29.928 24.3184 29.6649 24.997 29.6649C25.6782 29.6649 26.3184 29.9297 26.7994 30.4102C26.9539 30.5646 27.1597 30.6498 27.3785 30.6498C27.5968 30.6498 27.8017 30.5652 27.9562 30.4117C28.2756 30.0943 28.2762 29.5773 27.9577 29.2591Z" fill="white"/>
<path d="M31.761 25.4683C29.9548 23.6666 27.5525 22.6746 24.997 22.6746C22.4449 22.6746 20.045 23.6643 18.2394 25.4617C17.9204 25.7792 17.9202 26.2964 18.2389 26.6144C18.3934 26.7684 18.5989 26.8531 18.8175 26.8531C19.036 26.8531 19.2413 26.7688 19.3958 26.6148C20.8925 25.1251 22.8816 24.3045 24.997 24.3045C27.1155 24.3045 29.1066 25.1267 30.6036 26.6205C30.7581 26.7746 30.9639 26.8596 31.1824 26.8596C31.4009 26.8596 31.6061 26.7748 31.7605 26.6211C32.0796 26.3034 32.0799 25.786 31.761 25.4683Z" fill="white"/>
<path d="M29.8111 27.4112C28.5254 26.1285 26.8157 25.4222 24.997 25.4222C23.1815 25.4222 21.4743 26.1263 20.1897 27.4045C20.035 27.5583 19.9499 27.7629 19.9496 27.9808C19.9496 28.1984 20.0344 28.4032 20.1889 28.5573C20.3433 28.7114 20.5489 28.7964 20.7676 28.7964C20.9858 28.7964 21.1911 28.7116 21.3458 28.5581C22.3217 27.5872 23.6184 27.0524 24.997 27.0524C26.3784 27.0524 27.6769 27.5891 28.6534 28.5633C28.8081 28.7177 29.0136 28.8027 29.2323 28.8027C29.4507 28.8027 29.6561 28.7179 29.8104 28.5642C29.9648 28.4104 30.0502 28.2058 30.0503 27.988C30.0505 27.7701 29.9655 27.5655 29.8111 27.4112Z" fill="white"/>
</g>
<defs>
<filter id="filter0_dd_2346_495" x="0" y="0" width="50" height="56" filterUnits="userSpaceOnUse" color-interpolation-filters="sRGB">
<feFlood flood-opacity="0" result="BackgroundImageFix"/>
<feColorMatrix in="SourceAlpha" type="matrix" values="0 0 0 0 0 0 0 0 0 0 0 0 0 0 0 0 0 0 127 0" result="hardAlpha"/>
<feOffset dy="3"/>
<feGaussianBlur stdDeviation="2.5"/>
<feColorMatrix type="matrix" values="0 0 0 0 0.18564 0 0 0 0 0.0973785 0 0 0 0 0.295833 0 0 0 0.1 0"/>
<feBlend mode="normal" in2="BackgroundImageFix" result="effect1_dropShadow_2346_495"/>
<feColorMatrix in="SourceAlpha" type="matrix" values="0 0 0 0 0 0 0 0 0 0 0 0 0 0 0 0 0 0 127 0" result="hardAlpha"/>
<feOffset dy="-3"/>
<feGaussianBlur stdDeviation="2.5"/>
<feColorMatrix type="matrix" values="0 0 0 0 0.233818 0 0 0 0 0.556324 0 0 0 0 0.8625 0 0 0 0.17 0"/>
<feBlend mode="normal" in2="effect1_dropShadow_2346_495" result="effect2_dropShadow_2346_495"/>
<feBlend mode="normal" in="SourceGraphic" in2="effect2_dropShadow_2346_495" result="shape"/>
</filter>
<linearGradient id="paint0_linear_2346_495" x1="25" y1="8" x2="25" y2="48" gradientUnits="userSpaceOnUse">
<stop stop-color="#68ADFF"/>
<stop offset="1" stop-color="#4F45FF"/>
</linearGradient>
<clipPath id="clip0_2346_495">
<rect width="14" height="14" fill="white" transform="translate(18 21)"/>
</clipPath>
</defs>
</svg>
