<svg width="45" height="37" viewBox="0 0 45 37" fill="none" xmlns="http://www.w3.org/2000/svg">
<g clip-path="url(#clip0_1_260)">
<path d="M11.1427 32.3447V30.501C11.1535 30.3459 11.1311 30.1903 11.0771 30.0446C11.0232 29.8989 10.9389 29.7664 10.8298 29.6559C10.7207 29.5454 10.5894 29.4595 10.4447 29.4039C10.2999 29.3482 10.1449 29.3242 9.99016 29.3333C9.78755 29.32 9.58509 29.3614 9.40392 29.4533C9.22274 29.5452 9.0695 29.6841 8.96018 29.8557C8.86054 29.6893 8.71796 29.5529 8.54747 29.461C8.37699 29.3691 8.18493 29.3249 7.99152 29.3333C7.82293 29.3247 7.65503 29.3605 7.50448 29.437C7.35393 29.5136 7.22594 29.6282 7.13321 29.7696V29.407H6.49561V32.3447H7.13934V30.7283C7.12565 30.6279 7.13426 30.5256 7.16457 30.4289C7.19488 30.3322 7.24613 30.2434 7.31466 30.1688C7.38319 30.0942 7.46731 30.0357 7.561 29.9976C7.65469 29.9594 7.75564 29.9424 7.85664 29.9478C8.27967 29.9478 8.49424 30.2244 8.49424 30.7222V32.357H9.13798V30.7283C9.12484 30.628 9.13385 30.526 9.16437 30.4295C9.19488 30.333 9.24615 30.2444 9.31457 30.17C9.38298 30.0955 9.46687 30.037 9.5603 29.9987C9.65373 29.9603 9.75443 29.9429 9.85528 29.9478C10.2906 29.9478 10.499 30.2244 10.499 30.7222V32.357L11.1427 32.3447ZM20.6669 29.407H19.6186V28.5159H18.9748V29.407H18.3924V29.9909H18.9871V31.3429C18.9871 32.0251 19.2507 32.4307 20.0048 32.4307C20.2865 32.4316 20.5628 32.3528 20.8018 32.2033L20.6179 31.6563C20.4469 31.7586 20.2528 31.8157 20.0538 31.8223C19.7473 31.8223 19.6308 31.6256 19.6308 31.3306V29.9909H20.6731L20.6669 29.407ZM26.1049 29.3333C25.9495 29.3287 25.7957 29.3662 25.6597 29.442C25.5238 29.5177 25.4107 29.6287 25.3325 29.7635V29.407H24.701V32.3447H25.3386V30.6976C25.3386 30.2121 25.547 29.9417 25.9517 29.9417C26.088 29.9398 26.2235 29.9649 26.3502 30.0154L26.5464 29.4009C26.4007 29.3487 26.2473 29.3216 26.0927 29.321L26.1049 29.3333ZM17.8835 29.6406C17.5226 29.4255 17.1077 29.3188 16.688 29.3333C15.9462 29.3333 15.4619 29.6897 15.4619 30.2736C15.4619 30.7529 15.8175 31.0479 16.4735 31.1401L16.78 31.1831C17.1295 31.2323 17.295 31.3245 17.295 31.4904C17.295 31.7178 17.062 31.8469 16.6267 31.8469C16.2766 31.857 15.9333 31.7488 15.6519 31.5396L15.3454 32.0374C15.7168 32.2973 16.1617 32.4309 16.6145 32.4184C17.4605 32.4184 17.951 32.0189 17.951 31.4597C17.951 30.9004 17.5647 30.673 16.9271 30.5808L16.6206 30.5378C16.3447 30.501 16.124 30.4456 16.124 30.249C16.124 30.0523 16.3325 29.9048 16.6819 29.9048C17.0049 29.9086 17.3215 29.9953 17.6015 30.1568L17.8835 29.6406ZM34.9609 29.3333C34.8054 29.3287 34.6516 29.3662 34.5156 29.442C34.3797 29.5177 34.2666 29.6287 34.1884 29.7635V29.407H33.5569V32.3447H34.1945V30.6976C34.1945 30.2121 34.403 29.9417 34.8076 29.9417C34.944 29.9398 35.0794 29.9649 35.2061 30.0154L35.4023 29.4009C35.2567 29.3487 35.1033 29.3216 34.9486 29.321L34.9609 29.3333ZM26.7456 30.8697C26.738 31.0761 26.7735 31.2819 26.8498 31.4738C26.9261 31.6657 27.0415 31.8395 27.1887 31.9841C27.3358 32.1287 27.5115 32.241 27.7044 32.3136C27.8973 32.3863 28.1032 32.4178 28.309 32.4061C28.6918 32.4256 29.068 32.3007 29.3635 32.0558L29.0569 31.5396C28.8365 31.7081 28.5677 31.8007 28.2906 31.8038C28.0549 31.7847 27.835 31.6774 27.6747 31.5031C27.5144 31.3289 27.4254 31.1006 27.4254 30.8636C27.4254 30.6265 27.5144 30.3982 27.6747 30.224C27.835 30.0497 28.0549 29.9424 28.2906 29.9233C28.5677 29.9264 28.8365 30.019 29.0569 30.1875L29.3635 29.6713C29.068 29.4264 28.6918 29.3015 28.309 29.321C28.1032 29.3093 27.8973 29.3408 27.7044 29.4135C27.5115 29.4861 27.3358 29.5984 27.1887 29.743C27.0415 29.8876 26.9261 30.0614 26.8498 30.2533C26.7735 30.4452 26.738 30.651 26.7456 30.8574V30.8697ZM32.717 30.8697V29.407H32.0794V29.7635C31.9711 29.6238 31.8313 29.512 31.6714 29.4372C31.5115 29.3624 31.3361 29.3268 31.1598 29.3333C30.7533 29.3333 30.3634 29.4952 30.076 29.7833C29.7886 30.0714 29.6271 30.4622 29.6271 30.8697C29.6271 31.2772 29.7886 31.668 30.076 31.9561C30.3634 32.2442 30.7533 32.4061 31.1598 32.4061C31.3361 32.4126 31.5115 32.377 31.6714 32.3022C31.8313 32.2274 31.9711 32.1156 32.0794 31.9759V32.3324H32.717V30.8697ZM30.3444 30.8697C30.3545 30.6968 30.4149 30.5306 30.5181 30.3917C30.6213 30.2527 30.7628 30.1471 30.9251 30.0877C31.0874 30.0283 31.2635 30.0178 31.4317 30.0575C31.5999 30.0972 31.7529 30.1854 31.8718 30.3111C31.9906 30.4368 32.0702 30.5946 32.1007 30.7651C32.1312 30.9356 32.1113 31.1113 32.0435 31.2706C31.9756 31.43 31.8628 31.5659 31.7188 31.6617C31.5749 31.7575 31.4061 31.8091 31.2333 31.81C31.112 31.8115 30.9916 31.7879 30.8798 31.7405C30.768 31.6932 30.6672 31.6231 30.5837 31.5348C30.5002 31.4465 30.4358 31.3418 30.3946 31.2273C30.3534 31.1129 30.3363 30.9911 30.3444 30.8697ZM22.6502 29.3333C22.2437 29.339 21.8562 29.5063 21.5727 29.7985C21.2893 30.0907 21.1333 30.4837 21.139 30.8912C21.1447 31.2987 21.3116 31.6872 21.6031 31.9713C21.8945 32.2554 22.2867 32.4118 22.6932 32.4061C23.1342 32.4288 23.5679 32.2864 23.9101 32.0066L23.6036 31.5334C23.3615 31.728 23.0616 31.8362 22.7514 31.8407C22.5406 31.8589 22.3311 31.7939 22.1674 31.6596C22.0037 31.5254 21.8987 31.3324 21.8747 31.1217H24.0511C24.0511 31.0418 24.0511 30.9619 24.0511 30.8758C24.0511 29.954 23.481 29.3394 22.6594 29.3394L22.6502 29.3333ZM22.6502 29.9048C22.7456 29.9028 22.8405 29.9196 22.9294 29.9543C23.0184 29.9891 23.0996 30.041 23.1685 30.1072C23.2374 30.1734 23.2926 30.2526 23.3309 30.3402C23.3693 30.4278 23.3901 30.5221 23.3921 30.6177H21.8594C21.8705 30.4205 21.9582 30.2354 22.1037 30.1022C22.2492 29.9689 22.441 29.8981 22.638 29.9048H22.6502ZM38.624 30.8758V28.2271H38.0109V29.7635C37.9027 29.6238 37.7628 29.512 37.6029 29.4372C37.443 29.3624 37.2676 29.3268 37.0913 29.3333C36.6848 29.3333 36.295 29.4952 36.0075 29.7833C35.7201 30.0714 35.5586 30.4622 35.5586 30.8697C35.5586 31.2772 35.7201 31.668 36.0075 31.9561C36.295 32.2442 36.6848 32.4061 37.0913 32.4061C37.2676 32.4126 37.443 32.377 37.6029 32.3022C37.7628 32.2274 37.9027 32.1156 38.0109 31.9759V32.3324H38.624V30.8758ZM39.6877 31.9175C39.7276 31.917 39.7671 31.9244 39.8042 31.939C39.8394 31.9534 39.8716 31.9743 39.8992 32.0005C39.9262 32.027 39.948 32.0582 39.9636 32.0927C39.9791 32.1286 39.9871 32.1673 39.9871 32.2064C39.9871 32.2455 39.9791 32.2842 39.9636 32.3201C39.948 32.3545 39.9262 32.3858 39.8992 32.4123C39.8716 32.4385 39.8394 32.4593 39.8042 32.4737C39.7675 32.4899 39.7278 32.4983 39.6877 32.4983C39.6296 32.4979 39.5728 32.4809 39.524 32.4493C39.4751 32.4178 39.4362 32.3729 39.4118 32.3201C39.3965 32.2841 39.3886 32.2455 39.3886 32.2064C39.3886 32.1673 39.3965 32.1286 39.4118 32.0927C39.4274 32.0582 39.4493 32.027 39.4762 32.0005C39.5038 31.9743 39.536 31.9534 39.5712 31.939C39.6111 31.9231 39.654 31.9158 39.6969 31.9175H39.6877ZM39.6877 32.4368C39.7183 32.437 39.7486 32.4307 39.7766 32.4184C39.803 32.4066 39.8269 32.3899 39.8471 32.3692C39.8855 32.3273 39.9067 32.2725 39.9067 32.2156C39.9067 32.1587 39.8855 32.1039 39.8471 32.062C39.8269 32.0412 39.803 32.0245 39.7766 32.0128C39.7486 32.0005 39.7183 31.9943 39.6877 31.9944C39.6571 31.9945 39.6269 32.0008 39.5988 32.0128C39.5713 32.0241 39.5463 32.0408 39.5252 32.062C39.4869 32.1039 39.4656 32.1587 39.4656 32.2156C39.4656 32.2725 39.4869 32.3273 39.5252 32.3692C39.5463 32.3903 39.5713 32.407 39.5988 32.4184C39.6297 32.4318 39.6632 32.4381 39.6969 32.4368H39.6877ZM39.7061 32.0712C39.7347 32.0698 39.7629 32.0785 39.7858 32.0958C39.7952 32.1035 39.8026 32.1135 39.8074 32.1247C39.8122 32.1359 39.8142 32.1481 39.8134 32.1603C39.8138 32.1705 39.8121 32.1807 39.8085 32.1902C39.8048 32.1997 39.7991 32.2084 39.7919 32.2156C39.7742 32.2318 39.7515 32.2415 39.7276 32.2433L39.8165 32.3447H39.7459L39.6632 32.2433H39.6356V32.3447H39.5774V32.0742L39.7061 32.0712ZM39.6387 32.1234V32.1972H39.7061C39.7181 32.2007 39.7309 32.2007 39.7429 32.1972C39.745 32.1929 39.7462 32.1881 39.7462 32.1833C39.7462 32.1785 39.745 32.1738 39.7429 32.1695C39.745 32.1652 39.7462 32.1605 39.7462 32.1557C39.7462 32.1509 39.745 32.1461 39.7429 32.1419C39.7309 32.1383 39.7181 32.1383 39.7061 32.1419L39.6387 32.1234ZM36.2667 30.8758C36.2769 30.7029 36.3373 30.5368 36.4405 30.3978C36.5436 30.2589 36.6851 30.1532 36.8474 30.0938C37.0098 30.0345 37.1859 30.024 37.3541 30.0637C37.5223 30.1034 37.6752 30.1915 37.7941 30.3172C37.913 30.443 37.9926 30.6008 38.0231 30.7713C38.0536 30.9418 38.0337 31.1175 37.9658 31.2768C37.898 31.4361 37.7851 31.572 37.6412 31.6679C37.4972 31.7637 37.3285 31.8152 37.1557 31.8161C37.0343 31.8177 36.9139 31.794 36.8021 31.7467C36.6903 31.6993 36.5895 31.6293 36.506 31.5409C36.4225 31.4526 36.3581 31.3479 36.317 31.2335C36.2758 31.119 36.2587 30.9973 36.2667 30.8758ZM14.7385 30.8758V29.407H14.1009V29.7635C13.9926 29.6238 13.8527 29.512 13.6928 29.4372C13.5329 29.3624 13.3576 29.3268 13.1812 29.3333C12.7747 29.3333 12.3849 29.4952 12.0975 29.7833C11.81 30.0714 11.6485 30.4622 11.6485 30.8697C11.6485 31.2772 11.81 31.668 12.0975 31.9561C12.3849 32.2442 12.7747 32.4061 13.1812 32.4061C13.3576 32.4126 13.5329 32.377 13.6928 32.3022C13.8527 32.2274 13.9926 32.1156 14.1009 31.9759V32.3324H14.7385V30.8758ZM12.3658 30.8758C12.376 30.7029 12.4364 30.5368 12.5396 30.3978C12.6428 30.2589 12.7842 30.1532 12.9466 30.0938C13.1089 30.0345 13.285 30.024 13.4532 30.0637C13.6214 30.1034 13.7743 30.1915 13.8932 30.3172C14.0121 30.443 14.0917 30.6008 14.1222 30.7713C14.1527 30.9418 14.1328 31.1175 14.0649 31.2768C13.9971 31.4361 13.8843 31.572 13.7403 31.6679C13.5964 31.7637 13.4276 31.8152 13.2548 31.8161C13.1329 31.8185 13.0119 31.7955 12.8993 31.7485C12.7868 31.7016 12.6852 31.6316 12.6011 31.5432C12.5169 31.4548 12.452 31.3498 12.4104 31.235C12.3689 31.1201 12.3516 30.9978 12.3597 30.8758H12.3658Z" fill="white"/>
<path d="M27.3279 7.02142H17.6719V24.4167H27.3279V7.02142Z" fill="#FF5F00"/>
<path d="M18.2851 15.7214C18.2833 14.0459 18.6619 12.3919 19.3921 10.8847C20.1224 9.37757 21.1851 8.05673 22.5 7.02222C20.872 5.73969 18.9169 4.94215 16.8581 4.72078C14.7994 4.4994 12.72 4.8631 10.8577 5.77032C8.99534 6.67755 7.42521 8.09168 6.32672 9.85111C5.22823 11.6105 4.64569 13.6443 4.64569 15.7199C4.64569 17.7955 5.22823 19.8292 6.32672 21.5886C7.42521 23.3481 8.99534 24.7622 10.8577 25.6694C12.72 26.5767 14.7994 26.9404 16.8581 26.719C18.9169 26.4976 20.872 25.7001 22.5 24.4175C21.1856 23.3834 20.123 22.063 19.3928 20.5564C18.6625 19.0498 18.2838 17.3964 18.2851 15.7214Z" fill="#EB001B"/>
<path d="M40.3559 15.7206C40.3559 17.7964 39.7732 19.8302 38.6745 21.5897C37.5758 23.3492 36.0055 24.7633 34.1429 25.6704C32.2804 26.5775 30.2008 26.941 28.1419 26.7193C26.083 26.4976 24.1279 25.6997 22.5 24.4167C23.8139 23.3816 24.8762 22.0609 25.6066 20.5542C26.337 19.0476 26.7165 17.3943 26.7165 15.7191C26.7165 14.0439 26.337 12.3906 25.6066 10.8839C24.8762 9.37724 23.8139 8.05653 22.5 7.02142C24.1279 5.73849 26.083 4.94057 28.1419 4.71887C30.2008 4.49718 32.2804 4.86065 34.1429 5.76774C36.0055 6.67483 37.5758 8.08895 38.6745 9.84843C39.7732 11.6079 40.3559 13.6418 40.3559 15.7175V15.7206Z" fill="#F79E1B"/>
<path d="M39.3014 22.573V22.2166H39.4455V22.1429H39.0807V22.2166H39.237V22.573H39.3014ZM40.0095 22.573V22.1429H39.8991L39.7704 22.4501L39.6417 22.1429H39.5436V22.573H39.6233V22.2504L39.7428 22.53H39.8256L39.9451 22.2504V22.5761L40.0095 22.573Z" fill="#F79E1B"/>
</g>
<defs>
<clipPath id="clip0_1_260">
<rect width="45" height="37" fill="white"/>
</clipPath>
</defs>
</svg>
