<svg width="66" height="68" viewBox="0 0 66 68" fill="none" xmlns="http://www.w3.org/2000/svg">
<g filter="url(#filter0_d_1_142)">
<g filter="url(#filter1_d_1_142)">
<circle cx="33" cy="31" r="29" fill="url(#paint0_linear_1_142)"/>
</g>
<path fill-rule="evenodd" clip-rule="evenodd" d="M29.9545 22C26.8166 22 24.2727 24.2386 24.2727 27H22C22 23.134 25.5614 20 29.9545 20H36.0455C40.4386 20 44 23.134 44 27H41.7273C41.7273 24.2386 39.1834 22 36.0455 22H29.9545ZM24.2727 35C24.2727 37.7614 26.8166 40 29.9545 40H36.0455C39.1834 40 41.7273 37.7614 41.7273 35H44C44 38.866 40.4386 42 36.0455 42H29.9545C25.5614 42 22 38.866 22 35H24.2727Z" fill="white"/>
</g>
<defs>
<filter id="filter0_d_1_142" x="2" y="0" width="62" height="62" filterUnits="userSpaceOnUse" color-interpolation-filters="sRGB">
<feFlood flood-opacity="0" result="BackgroundImageFix"/>
<feColorMatrix in="SourceAlpha" type="matrix" values="0 0 0 0 0 0 0 0 0 0 0 0 0 0 0 0 0 0 127 0" result="hardAlpha"/>
<feOffset/>
<feGaussianBlur stdDeviation="1"/>
<feColorMatrix type="matrix" values="0 0 0 0 0.0338542 0 0 0 0 0.0677083 0 0 0 0 0.1625 0 0 0 0.4 0"/>
<feBlend mode="normal" in2="BackgroundImageFix" result="effect1_dropShadow_1_142"/>
<feBlend mode="normal" in="SourceGraphic" in2="effect1_dropShadow_1_142" result="shape"/>
</filter>
<filter id="filter1_d_1_142" x="0" y="2" width="66" height="66" filterUnits="userSpaceOnUse" color-interpolation-filters="sRGB">
<feFlood flood-opacity="0" result="BackgroundImageFix"/>
<feColorMatrix in="SourceAlpha" type="matrix" values="0 0 0 0 0 0 0 0 0 0 0 0 0 0 0 0 0 0 127 0" result="hardAlpha"/>
<feOffset dy="4"/>
<feGaussianBlur stdDeviation="2"/>
<feColorMatrix type="matrix" values="0 0 0 0 0 0 0 0 0 0 0 0 0 0 0 0 0 0 0.25 0"/>
<feBlend mode="normal" in2="BackgroundImageFix" result="effect1_dropShadow_1_142"/>
<feBlend mode="normal" in="SourceGraphic" in2="effect1_dropShadow_1_142" result="shape"/>
</filter>
<linearGradient id="paint0_linear_1_142" x1="46" y1="2" x2="23" y2="60" gradientUnits="userSpaceOnUse">
<stop stop-color="#5D9EFF"/>
<stop offset="1" stop-color="#7751FD"/>
</linearGradient>
</defs>
</svg>
