<svg width="263" height="146" viewBox="0 0 263 146" fill="none" xmlns="http://www.w3.org/2000/svg">
<g clip-path="url(#clip0_1_998)">
<path d="M31.3251 29.0565C36.3566 29.0565 40.4355 24.9828 40.4355 19.9576C40.4355 14.9324 36.3566 10.8587 31.3251 10.8587C26.2936 10.8587 22.2147 14.9324 22.2147 19.9576C22.2147 24.9828 26.2936 29.0565 31.3251 29.0565Z" fill="#96D4DF"/>
<path d="M58.5648 90.3896C58.0094 91.6235 57.2148 92.7348 56.2268 93.6597C55.2389 94.5852 54.0772 95.3054 52.8089 95.7799C50.3048 96.6057 47.5756 96.4141 45.2122 95.2455C42.8488 94.0768 41.0413 92.0256 40.1809 89.5358C39.4021 86.9247 39.6931 84.111 40.9902 81.7144C41.5435 80.4864 42.3355 79.3803 43.3202 78.4607C44.305 77.541 45.4628 76.826 46.7266 76.3567C49.2267 75.5394 51.9478 75.7316 54.3077 76.8925C56.6677 78.0533 58.4791 80.0908 59.3545 82.5682C59.7481 83.8594 59.881 85.2151 59.7455 86.5578C59.6099 87.9005 59.2086 89.2034 58.5648 90.3896ZM51.4319 90.7938C52.0531 90.5904 52.6255 90.2606 53.1129 89.8252C53.6003 89.3898 53.9923 88.8586 54.2642 88.2648C54.573 87.6919 54.7587 87.061 54.8092 86.4118C54.8598 85.7633 54.7742 85.1115 54.5578 84.4975C54.0623 83.2682 53.1313 82.2638 51.9422 81.6766C50.7532 81.0887 49.3891 80.9583 48.1101 81.3103C47.4908 81.5091 46.9201 81.835 46.4345 82.2671C45.9489 82.6992 45.5594 83.2278 45.2909 83.8196C44.9823 84.3958 44.7964 85.03 44.7448 85.6818C44.6931 86.3336 44.7768 86.9886 44.9907 87.6065C45.4679 88.8482 46.3952 89.865 47.5885 90.4555C48.7817 91.046 50.1536 91.1666 51.4319 90.7938Z" fill="#1CBBD5"/>
<path d="M68.5954 74.7468C67.7163 75.8718 66.5638 76.7536 65.2475 77.3083C64.0136 77.833 62.6566 78.0005 61.3319 77.7906C59.9702 77.554 58.6915 76.9746 57.6168 76.1064C56.5421 75.2389 55.7071 74.1113 55.1909 72.8305C54.718 71.583 54.605 70.2279 54.8646 68.9198C55.1434 67.5198 55.772 66.2123 56.6919 65.12C57.4686 64.134 58.4623 63.34 59.596 62.7996C60.6654 62.2994 61.8435 62.0752 63.0222 62.1478C64.2308 62.222 65.4029 62.5913 66.4353 63.2233L63.4007 66.9253C62.8318 66.7187 62.211 66.7024 61.6321 66.8797C61.0457 67.0557 60.5281 67.4083 60.1507 67.89C59.8896 68.1924 59.6963 68.5476 59.5838 68.9309C59.4712 69.3141 59.442 69.7169 59.4981 70.1126C59.6291 70.9527 60.0834 71.7082 60.7641 72.2179C61.406 72.779 62.2423 73.0665 63.0939 73.0195C63.808 72.9557 64.4748 72.6363 64.9714 72.1201C65.4681 71.6039 65.7605 70.9254 65.7957 70.2103C65.8212 69.5755 65.6352 68.9498 65.2671 68.431L68.3344 64.6442C69.6285 65.9731 70.3764 67.7381 70.4292 69.5911C70.4834 71.4781 69.8288 73.3168 68.5954 74.7468Z" fill="#0A4681"/>
<path d="M80.786 52.5861C81.064 52.9231 81.3126 53.2828 81.53 53.6615L73.2876 60.4466C73.826 60.9345 74.519 61.2181 75.2454 61.2483C75.9476 61.2435 76.623 60.9814 77.1445 60.5118C77.4309 60.278 77.6815 60.0035 77.8884 59.6971C78.0725 59.414 78.2049 59.1007 78.28 58.7715C78.342 58.453 78.342 58.1255 78.28 57.8069L82.0847 54.6783C82.7458 56.1887 82.8658 57.8806 82.424 59.4689C81.9652 61.1018 80.9987 62.5466 79.6635 63.5947C78.8882 64.2731 77.9824 64.787 77.0022 65.1052C76.0213 65.4236 74.9863 65.539 73.9597 65.4458C72.9423 65.363 71.9536 65.0709 71.055 64.5874C70.1563 64.1039 69.3674 63.4397 68.7389 62.6366C67.8474 61.5829 67.251 60.3124 67.0095 58.954C66.7811 57.6371 66.926 56.2825 67.4272 55.0433C67.9479 53.75 68.7957 52.6137 69.8875 51.7453C70.9715 50.819 72.278 50.1901 73.6791 49.9203C74.9765 49.6664 76.3189 49.7792 77.5556 50.2462C78.8236 50.7222 79.9396 51.5304 80.786 52.5861ZM72.3935 54.763C71.8805 55.1573 71.521 55.7171 71.3754 56.3469C71.239 57.0063 71.3193 57.692 71.6038 58.3022L76.1068 54.6001C75.5717 54.1773 74.9028 53.9604 74.2208 53.9892C73.5395 54.0178 72.8908 54.2902 72.3935 54.7565V54.763Z" fill="#F9A420"/>
<path d="M90.4642 39.4591L93.7272 37.8166L100.162 50.6633L96.7553 52.371L95.92 51.654C95.2791 53.0992 94.1429 54.2686 92.7157 54.952C91.5097 55.5808 90.1588 55.8799 88.8001 55.8189C87.4962 55.746 86.2373 55.3127 85.165 54.5675C84.0308 53.7738 83.1191 52.7036 82.5155 51.4585C82.0299 50.5691 81.7317 49.59 81.6384 48.5813C81.545 47.5726 81.6593 46.5555 81.9738 45.5924C82.2936 44.6395 82.8065 43.7624 83.48 43.0156C84.1535 42.2689 84.9738 41.6684 85.8894 41.2515C87.3102 40.5112 88.9489 40.3031 90.5099 40.6649L90.4642 39.4591ZM88.9045 50.9305C89.7241 51.1888 90.6123 51.1182 91.3811 50.7337C92.1499 50.3493 92.7385 49.6812 93.0224 48.8709C93.258 48.0373 93.1738 47.1458 92.7868 46.3708C92.3992 45.5957 91.7361 44.9929 90.9276 44.6799C90.1072 44.4249 89.219 44.4969 88.4503 44.8808C87.6815 45.2647 87.0915 45.9307 86.8031 46.7396C86.5695 47.574 86.6549 48.4655 87.0439 49.2403C87.4322 50.015 88.0959 50.6176 88.9045 50.9305Z" fill="#EF5732"/>
<path d="M107.419 33.6843C108.142 33.4891 108.898 33.4532 109.636 33.5793C110.374 33.7053 111.077 33.9903 111.693 34.4143C112.98 35.3727 113.85 36.7857 114.128 38.3642L116.053 46.9091L111.217 48.0236L109.435 40.1305C109.07 38.501 108.28 37.8232 107.066 38.0969C106.608 38.1897 106.188 38.4166 105.859 38.7487C105.548 39.0631 105.343 39.4663 105.272 39.9024C105.184 40.4381 105.208 40.9864 105.344 41.5123L107.027 48.9883L102.198 50.0768L99.0328 36.0568L102.413 35.2943L103.418 36.5978C103.826 35.8458 104.397 35.1941 105.089 34.6901C105.781 34.1861 106.577 33.8425 107.419 33.6843Z" fill="#EC2129"/>
<path d="M136.669 33.6257L129.999 33.1043L129.771 36.0764L135.742 36.5392L135.396 41.0235L129.418 40.5542L128.909 47.072L123.754 46.6679L125.209 28.0985L137.028 29.0176L136.669 33.6257Z" fill="#4185F3"/>
<path d="M148.292 35.9069L149.558 36.2197L148.468 40.6388L146.601 40.1826C146.282 40.0745 145.945 40.0309 145.609 40.0544C145.273 40.078 144.944 40.168 144.643 40.3195C144.084 40.7567 143.713 41.3909 143.606 42.0923L141.844 49.1968L137.001 48.0236L140.454 34.0753L143.658 34.864L144.024 36.5978C144.637 36.1688 145.339 35.8837 146.079 35.7641C146.817 35.6445 147.574 35.6933 148.292 35.9069Z" fill="#EA4335"/>
<path d="M147.313 50.8132L152.409 37.3734L157.043 39.1267L151.953 52.5861L147.313 50.8132ZM153.075 35.6918L154.557 31.7811L159.125 33.5083L157.65 37.419L153.075 35.6918Z" fill="#FABB07"/>
<path d="M170.8 54.1569C170.583 54.5346 170.339 54.8963 170.069 55.2388L160.75 50.0246C160.49 50.7022 160.476 51.4495 160.711 52.1363C160.97 52.787 161.457 53.3218 162.081 53.642C162.403 53.8239 162.751 53.9558 163.112 54.033C163.444 54.0946 163.785 54.0946 164.117 54.033C164.438 53.9824 164.746 53.8694 165.024 53.7006L169.325 56.1057C168.156 57.2687 166.621 57.9937 164.979 58.1588C163.288 58.3229 161.588 57.9488 160.123 57.0899C159.21 56.6116 158.402 55.9531 157.75 55.1544C157.099 54.3556 156.616 53.4331 156.332 52.4427C156.044 51.4668 155.961 50.4422 156.088 49.4329C156.215 48.4236 156.549 47.4512 157.069 46.5766C157.727 45.3634 158.698 44.3484 159.882 43.6371C161.024 42.9517 162.334 42.5974 163.667 42.6137C165.062 42.6302 166.429 43.0074 167.635 43.7087C168.892 44.3841 169.952 45.3719 170.715 46.5766C171.419 47.694 171.798 48.9847 171.811 50.3048C171.824 51.656 171.475 52.9861 170.8 54.1569ZM165.729 47.1371C165.176 46.801 164.524 46.6651 163.882 46.7526C163.226 46.8698 162.624 47.1888 162.159 47.6651L167.25 50.5199C167.447 49.8677 167.401 49.1664 167.122 48.545C166.843 47.9235 166.348 47.4236 165.729 47.1371Z" fill="#1CBBD5"/>
<path d="M184.557 55.845C185.144 56.3078 185.623 56.8927 185.961 57.559C186.299 58.2253 186.488 58.9571 186.515 59.7036C186.518 61.3072 185.906 62.8511 184.805 64.0184L179.108 70.6731L175.342 67.4533L180.602 61.307C181.685 60.0338 181.755 58.9953 180.811 58.1914C180.466 57.8829 180.041 57.6773 179.584 57.5983C179.136 57.5376 178.68 57.6173 178.279 57.8264C177.802 58.0789 177.379 58.4246 177.039 58.8432L172.053 64.6702L168.287 61.4569L177.659 50.5004L180.269 52.749L179.825 54.3329C180.677 54.2165 181.544 54.2919 182.363 54.5536C183.181 54.8152 183.931 55.2564 184.557 55.845Z" fill="#0A4681"/>
<path d="M202.36 68.1312L205.388 71.9832L189.986 84.0608L187.715 81.1734L188.27 80.1566C186.71 79.8379 185.319 78.9645 184.354 77.6994C183.708 76.9303 183.227 76.036 182.942 75.0727C182.656 74.1093 182.573 73.0978 182.697 72.1005C183.037 70.0937 184.113 68.2856 185.715 67.0277C187.317 65.7697 189.331 65.1524 191.363 65.2959C192.364 65.4119 193.329 65.7326 194.2 66.2384C195.07 66.7442 195.826 67.424 196.421 68.2354C197.211 69.2196 197.7 70.4098 197.831 71.6638L202.36 68.1312ZM187.546 73.1369C187.445 73.9933 187.687 74.8543 188.22 75.5328C188.754 76.2107 189.534 76.65 190.391 76.7543C190.823 76.7999 191.26 76.7582 191.675 76.633C192.091 76.5079 192.477 76.3006 192.812 76.0243C193.166 75.7512 193.461 75.4096 193.68 75.0205C193.892 74.6549 194.031 74.2521 194.091 73.8343C194.145 73.4217 194.114 73.0026 194 72.6024C193.886 72.1827 193.689 71.7903 193.419 71.4487C193.163 71.1059 192.838 70.8204 192.464 70.6092C192.092 70.3981 191.679 70.2671 191.252 70.2234C190.382 70.1582 189.519 70.4209 188.832 70.9606C188.146 71.4996 187.687 72.2765 187.546 73.1369Z" fill="#EA4335"/>
<path d="M193.256 91.2304C192.398 89.8069 192.076 88.1247 192.349 86.4854C192.499 85.7854 192.806 85.1284 193.247 84.564C193.688 83.9995 194.251 83.5426 194.894 83.2265L197.12 87.4371C196.924 87.5231 196.751 87.6508 196.612 87.8125C196.473 87.9735 196.373 88.1638 196.317 88.3691C196.229 88.7954 196.303 89.2399 196.526 89.614C196.63 89.8265 196.774 90.0168 196.95 90.1746C197.115 90.3212 197.319 90.4157 197.537 90.4483C197.76 90.4907 197.991 90.4542 198.19 90.344C198.31 90.2801 198.412 90.1869 198.486 90.0729C198.56 89.9588 198.604 89.8278 198.614 89.6922C198.66 89.3931 198.646 89.0874 198.575 88.7928C198.503 88.4929 198.379 88.0758 198.196 87.5348C198.014 86.9938 197.87 86.5441 197.772 86.1661C197.661 85.704 197.589 85.2327 197.557 84.7582C197.507 84.2648 197.544 83.7662 197.668 83.2852C197.81 82.8081 198.048 82.3649 198.366 81.9816C198.75 81.5038 199.233 81.1147 199.782 80.841C200.363 80.5125 201.015 80.3293 201.683 80.3078C202.35 80.2863 203.012 80.4264 203.613 80.7171C205.03 81.4341 206.165 82.6041 206.837 84.0413C207.632 85.4067 207.93 87.0049 207.679 88.5646C207.56 89.2353 207.286 89.8682 206.879 90.4151C206.473 90.9613 205.944 91.4058 205.336 91.7128L203.169 87.6196C203.411 87.5022 203.613 87.3165 203.75 87.0851C203.862 86.8869 203.914 86.6608 203.9 86.4333C203.875 86.1654 203.795 85.906 203.665 85.6707C203.519 85.3526 203.265 85.0958 202.947 84.9472C202.813 84.886 202.666 84.8573 202.519 84.8638C202.371 84.871 202.227 84.9127 202.099 84.9863C201.983 85.0457 201.883 85.1304 201.805 85.234C201.728 85.3448 201.687 85.4771 201.688 85.6121C201.688 85.762 201.688 85.8988 201.688 86.0227C201.699 86.2039 201.732 86.3838 201.786 86.5571C201.851 86.7918 201.903 86.9808 201.949 87.1177C201.995 87.2546 202.06 87.4696 202.151 87.7695C202.242 88.0693 202.347 88.3821 202.393 88.5321C202.438 88.682 202.51 88.9362 202.608 89.3012C202.706 89.6662 202.765 89.953 202.791 90.142C202.817 90.331 202.843 90.5917 202.862 90.9306C202.884 91.205 202.868 91.4814 202.817 91.7519C202.765 91.9605 202.693 92.2146 202.601 92.5145C202.517 92.7908 202.382 93.0496 202.203 93.2771C202.006 93.513 201.787 93.7313 201.551 93.9288C201.267 94.1687 200.959 94.376 200.631 94.548C200.022 94.8935 199.338 95.0877 198.639 95.1138C197.939 95.1399 197.244 94.9971 196.61 94.6979C195.133 93.953 193.951 92.7309 193.256 91.2304Z" fill="#FABB07"/>
<path d="M245.804 145.791C238.775 145.791 228.183 140.577 215.053 133.688C201.094 126.336 187.99 117.47 175.975 107.251C166.356 116.037 151.222 126.407 130.599 130.429C87.6057 138.817 54.2446 112.518 47.9796 107.16C47.2901 106.542 46.8701 105.679 46.8097 104.756C46.7492 103.833 47.0532 102.923 47.6564 102.221C48.2596 101.519 49.1141 101.08 50.0369 101C50.9597 100.919 51.8774 101.203 52.5936 101.789C58.4083 106.776 89.4591 131.257 129.242 123.494C149.93 119.459 164.672 108.47 173.397 99.9579C174.034 99.3354 174.884 98.9769 175.775 98.9541C176.665 98.9313 177.532 99.2455 178.2 99.834C190.454 110.578 203.931 119.843 218.355 127.437C223.909 130.357 230.82 133.994 236.7 136.321C245.275 139.717 247.057 138.517 247.07 138.504C247.853 137.312 246.704 128.969 231.375 107.349C230.898 106.676 230.672 105.857 230.736 105.033C230.8 104.211 231.151 103.436 231.727 102.845C247.964 86.1856 253.315 78.7292 255.064 75.542C250.496 76.7738 238.097 82.1576 204.533 103.334C203.74 103.835 202.78 104 201.864 103.793C200.948 103.586 200.153 103.025 199.652 102.233C199.15 101.44 198.985 100.481 199.192 99.5668C199.399 98.6523 199.961 97.8578 200.754 97.3572C251.729 65.1916 258.582 66.0259 261.884 70.1843C264.801 73.8669 261.427 79.381 257.348 84.7908C253.433 89.9595 247.227 96.9792 238.841 105.648C242.495 110.86 245.855 116.271 248.904 121.858C254.777 132.938 255.808 139.547 252.167 143.367C250.607 145.042 248.46 145.791 245.804 145.791Z" fill="#1CBBD5"/>
<path d="M27.1026 79.1007C32.1341 79.1007 36.2129 75.0271 36.2129 70.0018C36.2129 64.9765 32.1341 60.9028 27.1026 60.9028C22.071 60.9028 17.9922 64.9765 17.9922 70.0018C17.9922 75.0271 22.071 79.1007 27.1026 79.1007Z" fill="#96D4DF"/>
<path d="M7.01551 48.0757C10.8901 48.0757 14.031 44.9387 14.031 41.069C14.031 37.1993 10.8901 34.0623 7.01551 34.0623C3.14095 34.0623 0 37.1993 0 41.069C0 44.9387 3.14095 48.0757 7.01551 48.0757Z" fill="#96D4DF"/>
<path d="M9.71734 9.90714C12.4566 9.90714 14.6771 7.68938 14.6771 4.95357C14.6771 2.21779 12.4566 0 9.71734 0C6.97816 0 4.75757 2.21779 4.75757 4.95357C4.75757 7.68938 6.97816 9.90714 9.71734 9.90714Z" fill="#96D4DF"/>
</g>
<defs>
<clipPath id="clip0_1_998">
<rect width="263" height="146" fill="white"/>
</clipPath>
</defs>
</svg>
