<svg width="50" height="56" viewBox="0 0 50 56" fill="none" xmlns="http://www.w3.org/2000/svg">
<g filter="url(#filter0_dd_2346_172)">
<circle cx="25" cy="28" r="20" fill="url(#paint0_linear_2346_172)"/>
</g>
<path d="M31.9029 26.1451C31.8696 26.0482 31.7516 25.9729 31.6532 25.9729C31.2267 25.9729 30.8003 25.9729 30.3739 25.9729C30.2755 25.9729 30.1575 26.0482 30.1242 26.1451C30.0916 26.2399 30.0673 26.3245 30.0511 26.4041L29.1966 24.04C29.0556 23.6502 28.6824 23.3883 28.2679 23.3883H21.7323C21.3178 23.3883 20.9446 23.6502 20.8036 24.0401L19.949 26.4044C19.9328 26.3247 19.9085 26.24 19.8759 26.1451C19.8426 26.0482 19.7246 25.9729 19.6262 25.9729C19.1997 25.9729 18.7733 25.9729 18.3469 25.9729C18.2485 25.9729 18.1305 26.0482 18.0972 26.1451C17.9676 26.5223 17.9677 26.7382 18.0972 27.1155C18.1305 27.2124 18.2485 27.2877 18.3469 27.2877C18.7734 27.2877 19.1998 27.2877 19.6262 27.2877C19.6274 27.2877 19.6287 27.2874 19.6299 27.2873L19.6106 27.3408C19.3498 27.4275 19.1614 27.673 19.1614 27.963V29.9427V30.1058V32.2964C19.1614 32.4706 19.3026 32.6117 19.4767 32.6117H21.0634C21.2375 32.6117 21.3786 32.4706 21.3786 32.2964V30.7617H28.6215V32.2964C28.6215 32.4706 28.7626 32.6117 28.9368 32.6117H30.5234C30.6976 32.6117 30.8387 32.4706 30.8387 32.2964V30.1058V29.9427V27.963C30.8387 27.6731 30.6504 27.4276 30.3897 27.3408L30.3704 27.2873C30.3715 27.2874 30.3728 27.2877 30.3739 27.2877C30.8004 27.2877 31.2268 27.2877 31.6532 27.2877C31.7517 27.2877 31.8696 27.2123 31.9029 27.1154C32.0324 26.7382 32.0323 26.5223 31.9029 26.1451ZM21.853 24.5485H28.1463L29.1434 27.307H20.8559L21.853 24.5485ZM22.0285 29.2504H20.7011C20.4164 29.2504 20.1855 29.0195 20.1855 28.7347C20.1855 28.45 20.4163 28.2191 20.7011 28.2191H22.0285C22.3133 28.2191 22.5442 28.45 22.5442 28.7347C22.5442 29.0195 22.3133 29.2504 22.0285 29.2504ZM29.2989 29.2504H27.9715C27.6867 29.2504 27.4559 29.0195 27.4559 28.7347C27.4559 28.45 27.6867 28.2191 27.9715 28.2191H29.2989C29.5837 28.2191 29.8145 28.45 29.8145 28.7347C29.8145 29.0195 29.5837 29.2504 29.2989 29.2504Z" fill="white"/>
<defs>
<filter id="filter0_dd_2346_172" x="0" y="0" width="50" height="56" filterUnits="userSpaceOnUse" color-interpolation-filters="sRGB">
<feFlood flood-opacity="0" result="BackgroundImageFix"/>
<feColorMatrix in="SourceAlpha" type="matrix" values="0 0 0 0 0 0 0 0 0 0 0 0 0 0 0 0 0 0 127 0" result="hardAlpha"/>
<feOffset dy="3"/>
<feGaussianBlur stdDeviation="2.5"/>
<feColorMatrix type="matrix" values="0 0 0 0 0.18564 0 0 0 0 0.0973785 0 0 0 0 0.295833 0 0 0 0.1 0"/>
<feBlend mode="normal" in2="BackgroundImageFix" result="effect1_dropShadow_2346_172"/>
<feColorMatrix in="SourceAlpha" type="matrix" values="0 0 0 0 0 0 0 0 0 0 0 0 0 0 0 0 0 0 127 0" result="hardAlpha"/>
<feOffset dy="-3"/>
<feGaussianBlur stdDeviation="2.5"/>
<feColorMatrix type="matrix" values="0 0 0 0 0.233818 0 0 0 0 0.556324 0 0 0 0 0.8625 0 0 0 0.17 0"/>
<feBlend mode="normal" in2="effect1_dropShadow_2346_172" result="effect2_dropShadow_2346_172"/>
<feBlend mode="normal" in="SourceGraphic" in2="effect2_dropShadow_2346_172" result="shape"/>
</filter>
<linearGradient id="paint0_linear_2346_172" x1="25" y1="8" x2="25" y2="48" gradientUnits="userSpaceOnUse">
<stop stop-color="#68ADFF"/>
<stop offset="1" stop-color="#4F45FF"/>
</linearGradient>
</defs>
</svg>
