<svg width="54" height="54" viewBox="0 0 54 54" fill="none" xmlns="http://www.w3.org/2000/svg">
<rect x="0.5" y="0.5" width="53" height="53" rx="9.5" stroke="white" stroke-opacity="0.2"/>
<g clip-path="url(#clip0_1_273)">
<path d="M27.7809 22.3912V26.6766L30.6245 29.5211C30.771 29.6675 30.8533 29.8662 30.8533 30.0733C30.8533 30.2805 30.771 30.4791 30.6245 30.6256C30.4781 30.7721 30.2794 30.8544 30.0723 30.8544C29.8651 30.8544 29.6665 30.7721 29.52 30.6256L26.4473 27.5529C26.3006 27.4064 26.2182 27.2076 26.2182 27.0002V22.3912C26.2182 22.184 26.3005 21.9853 26.447 21.8387C26.5936 21.6922 26.7923 21.6099 26.9995 21.6099C27.2068 21.6099 27.4055 21.6922 27.5521 21.8387C27.6986 21.9853 27.7809 22.184 27.7809 22.3912ZM30.0727 17.0005H23.9273C22.2566 16.9979 20.6416 17.6012 19.3818 18.6986V17.7813C19.3818 17.5741 19.2995 17.3754 19.153 17.2288C19.0064 17.0823 18.8077 17 18.6005 17C18.3932 17 18.1945 17.0823 18.0479 17.2288C17.9014 17.3754 17.8191 17.5741 17.8191 17.7813V20.854C17.8196 21.061 17.902 21.2593 18.0483 21.4057C18.1947 21.552 18.393 21.6344 18.6 21.6349H21.6727C21.88 21.6349 22.0787 21.5526 22.2252 21.406C22.3718 21.2595 22.4541 21.0608 22.4541 20.8535C22.4541 20.6463 22.3718 20.4476 22.2252 20.3011C22.0787 20.1545 21.88 20.0722 21.6727 20.0722H20.1955C21.1961 19.1062 22.5319 18.565 23.9227 18.5622H30.0682C31.4901 18.5642 32.8533 19.1299 33.8587 20.1353C34.8642 21.1407 35.4299 22.5038 35.4318 23.9258V30.0711C35.4299 31.493 34.8642 32.8561 33.8587 33.8615C32.8533 34.867 31.4901 35.4327 30.0682 35.4346H23.9227C22.5008 35.4327 21.1376 34.867 20.1322 33.8615C19.1267 32.8561 18.561 31.493 18.5591 30.0711V27.0002C18.5473 26.8015 18.4601 26.6147 18.3152 26.4781C18.1703 26.3415 17.9787 26.2655 17.7795 26.2655C17.5804 26.2655 17.3888 26.3415 17.2439 26.4781C17.099 26.6147 17.0118 26.8015 17 27.0002V30.0729C17.0019 31.9095 17.7324 33.6703 19.0311 34.969C20.3298 36.2676 22.0906 36.9981 23.9273 37H30.0727C31.9094 36.9981 33.6702 36.2676 34.9689 34.969C36.2676 33.6703 36.9981 31.9095 37 30.0729V23.9276C36.9981 22.091 36.2676 20.3302 34.9689 19.0315C33.6702 17.7328 31.9094 17.0024 30.0727 17.0005Z" fill="white"/>
</g>
<defs>
<clipPath id="clip0_1_273">
<rect width="20" height="20" fill="white" transform="translate(17 17)"/>
</clipPath>
</defs>
</svg>
