<svg width="50" height="56" viewBox="0 0 50 56" fill="none" xmlns="http://www.w3.org/2000/svg">
<g filter="url(#filter0_dd_2346_287)">
<circle cx="25" cy="28" r="20" fill="url(#paint0_linear_2346_287)"/>
</g>
<g clip-path="url(#clip0_2346_287)">
<path d="M29.1015 26.7695H25.707L28.6373 21.6136C28.7099 21.4866 28.7094 21.3308 28.6362 21.2042C28.5625 21.0778 28.4275 21 28.2812 21H23.3594C23.1828 21 23.0261 21.113 22.9705 21.2804L20.5095 28.6905C20.4675 28.8155 20.4887 28.9533 20.5656 29.0602C20.643 29.1672 20.7667 29.2304 20.8984 29.2304H24.378L22.1622 34.4284C22.0829 34.6131 22.1494 34.8282 22.3192 34.9359C22.4863 35.0427 22.7107 35.0146 22.8455 34.8623L29.408 27.4521C29.5153 27.3316 29.5418 27.1588 29.4757 27.0119C29.4096 26.8645 29.263 26.7695 29.1015 26.7695Z" fill="white"/>
</g>
<defs>
<filter id="filter0_dd_2346_287" x="0" y="0" width="50" height="56" filterUnits="userSpaceOnUse" color-interpolation-filters="sRGB">
<feFlood flood-opacity="0" result="BackgroundImageFix"/>
<feColorMatrix in="SourceAlpha" type="matrix" values="0 0 0 0 0 0 0 0 0 0 0 0 0 0 0 0 0 0 127 0" result="hardAlpha"/>
<feOffset dy="3"/>
<feGaussianBlur stdDeviation="2.5"/>
<feColorMatrix type="matrix" values="0 0 0 0 0.18564 0 0 0 0 0.0973785 0 0 0 0 0.295833 0 0 0 0.1 0"/>
<feBlend mode="normal" in2="BackgroundImageFix" result="effect1_dropShadow_2346_287"/>
<feColorMatrix in="SourceAlpha" type="matrix" values="0 0 0 0 0 0 0 0 0 0 0 0 0 0 0 0 0 0 127 0" result="hardAlpha"/>
<feOffset dy="-3"/>
<feGaussianBlur stdDeviation="2.5"/>
<feColorMatrix type="matrix" values="0 0 0 0 0.233818 0 0 0 0 0.556324 0 0 0 0 0.8625 0 0 0 0.17 0"/>
<feBlend mode="normal" in2="effect1_dropShadow_2346_287" result="effect2_dropShadow_2346_287"/>
<feBlend mode="normal" in="SourceGraphic" in2="effect2_dropShadow_2346_287" result="shape"/>
</filter>
<linearGradient id="paint0_linear_2346_287" x1="25" y1="8" x2="25" y2="48" gradientUnits="userSpaceOnUse">
<stop stop-color="#68ADFF"/>
<stop offset="1" stop-color="#4F45FF"/>
</linearGradient>
<clipPath id="clip0_2346_287">
<rect width="14" height="14" fill="white" transform="translate(18 21)"/>
</clipPath>
</defs>
</svg>
