<svg width="14" height="27" viewBox="0 0 14 27" fill="none" xmlns="http://www.w3.org/2000/svg">
<path fill-rule="evenodd" clip-rule="evenodd" d="M7.55533 1.28479C8.10287 1.83234 8.61487 2.41542 9.08637 3.0291C9.78678 3.96427 10.3951 4.96746 10.8973 6.02455C11.0239 6.28838 11.1413 6.55615 11.254 6.82559C11.5767 7.63148 11.8398 8.4594 12.0432 9.30265C12.1443 9.73015 12.2312 10.1612 12.3022 10.5976C12.3102 10.6517 12.3186 10.7062 12.327 10.7608C12.3354 10.8153 12.3439 10.8699 12.3519 10.924C12.3554 10.9488 12.3585 10.9732 12.3616 10.9976L12.3616 10.9976C12.3647 11.022 12.3678 11.0464 12.3714 11.0712L12.3738 11.0871C12.3783 11.1229 12.3803 11.1383 12.3808 11.1412C12.4049 11.3431 12.4258 11.5451 12.4406 11.747C12.5133 12.6215 12.5221 13.4996 12.4654 14.3759C12.4512 14.5959 12.4335 14.8123 12.4104 15.0305C12.4006 15.1313 12.3894 15.2306 12.378 15.3298C12.3783 15.3255 12.3775 15.3293 12.3749 15.3462C12.3714 15.3764 12.3674 15.4061 12.3634 15.4358C12.3594 15.4655 12.3554 15.4952 12.3519 15.5254C12.2898 15.96 12.2117 16.3928 12.1177 16.8238C11.9066 17.7879 11.6135 18.7327 11.2436 19.6497C10.799 20.712 10.2518 21.7315 9.60947 22.6882C9.43844 22.9432 9.26059 23.1914 9.07712 23.4363C8.60867 24.0448 8.10039 24.623 7.55712 25.1663C7.27862 25.4448 7.25733 25.9557 7.55712 26.2306C7.8569 26.5056 8.32343 26.5286 8.62143 26.2306C9.97134 24.8772 11.1244 23.3091 11.9935 21.6062C12.8326 19.9618 13.4304 18.1862 13.739 16.3626C14.053 14.4947 14.0814 12.6145 13.8366 10.7377C13.5971 8.90531 13.0614 7.12435 12.288 5.44628C11.4898 3.71853 10.4024 2.12383 9.11101 0.726027C8.95198 0.552869 8.78768 0.384992 8.62511 0.218888L8.62499 0.218763L8.62319 0.216928C8.3447 -0.0615682 7.83382 -0.0828548 7.55888 0.216928C7.28038 0.520258 7.25909 0.98501 7.55533 1.28479ZM12.3775 11.1138L12.3738 11.0871L12.3655 11.0198L12.3687 11.0437C12.3709 11.0601 12.3731 11.0765 12.3749 11.0925L12.3775 11.1138ZM12.3775 11.1138L12.3808 11.1412C12.381 11.1422 12.3809 11.1417 12.3808 11.1401L12.3775 11.1138ZM8.99748 2.91143L9.05496 2.98729C9.0358 2.96229 9.01664 2.93725 8.99748 2.91143ZM11.3088 19.4917C11.2916 19.5341 11.2742 19.5764 11.2566 19.6186L11.3088 19.4917ZM8.99926 23.5397C9.01419 23.5196 9.02911 23.4999 9.04404 23.4804L8.99926 23.5397ZM0.218656 8.62514C0.429114 8.8356 0.624797 9.05787 0.808403 9.29197C1.13752 9.7405 1.41557 10.2232 1.63451 10.7342C1.76213 11.0572 1.86719 11.3866 1.94819 11.7241C1.98899 11.8961 2.02446 12.0664 2.05285 12.2403C2.05639 12.2616 2.0595 12.2833 2.0626 12.305C2.06529 12.3238 2.06797 12.3426 2.07094 12.3611C2.07287 12.376 2.07581 12.3973 2.07857 12.417C2.07923 12.4221 2.07993 12.4272 2.08072 12.4322L2.08229 12.4434L2.08233 12.4458C2.08247 12.4564 2.0826 12.4658 2.083 12.4727C2.08832 12.5205 2.09187 12.5701 2.09541 12.6198L2.09542 12.6199C2.12558 12.9729 2.12913 13.3312 2.10607 13.6842C2.10075 13.7711 2.09365 13.8598 2.08479 13.9467C2.08251 13.974 2.07951 14.0021 2.07624 14.0304C2.06814 14.0864 2.06423 14.1158 2.0628 14.1284C2.03819 14.2863 2.00926 14.4429 1.97481 14.5995C1.89226 14.9786 1.77612 15.3496 1.63549 15.7096C1.41506 16.222 1.13738 16.7081 0.807117 17.1587C0.623129 17.3928 0.425948 17.6139 0.216926 17.8262C-0.0615696 18.1047 -0.0828535 18.6155 0.216931 18.8905C0.516715 19.1654 0.983241 19.1885 1.28125 18.8905C2.42716 17.7375 3.23426 16.2315 3.50388 14.6244C3.78059 12.9853 3.5624 11.3267 2.86704 9.81541C2.48211 8.97992 1.93043 8.21183 1.28119 7.55905C1.0027 7.28055 0.491824 7.25926 0.216877 7.55905C-0.0580705 7.86237 -0.0793546 8.32713 0.218656 8.62514ZM2.07091 14.0754L2.07624 14.0304L2.08301 13.984L2.07769 14.0248L2.07237 14.0656L2.07091 14.0754ZM2.07091 14.0754L2.0628 14.1284C2.05989 14.1541 2.06729 14.1099 2.07059 14.078L2.07061 14.0779L2.07091 14.0754ZM2.08228 12.4428C2.08179 12.407 2.0808 12.3587 2.06881 12.3414C2.06846 12.341 2.06937 12.349 2.07094 12.3611L2.07236 12.3698C2.07413 12.3804 2.07546 12.3915 2.07679 12.4026L2.07857 12.417L2.08072 12.4322C2.08088 12.4333 2.08105 12.4343 2.08123 12.4354C2.08161 12.438 2.08196 12.4405 2.08228 12.4428ZM2.08229 12.4434C2.08229 12.4432 2.08229 12.443 2.08228 12.4428C2.08798 12.4827 2.08617 12.4706 2.08229 12.4434ZM0.7384 9.1981L0.770112 9.24025C0.759542 9.22635 0.748971 9.21235 0.7384 9.1981ZM1.6892 10.8655L1.65695 10.7872C1.66785 10.8132 1.6786 10.8394 1.6892 10.8655ZM0.736665 17.2532C0.747119 17.2391 0.757574 17.2253 0.768028 17.2115L0.736665 17.2532ZM4.99057 6.13846C4.65987 5.71175 4.30277 5.30505 3.92087 4.92315C3.62286 4.62514 3.64415 4.16039 3.91732 3.85884C4.19227 3.55906 4.70314 3.58034 4.98164 3.85884C5.10226 3.97946 5.22111 4.10186 5.33641 4.2278C6.26237 5.23181 7.04464 6.37595 7.6176 7.61588C8.1746 8.82211 8.55953 10.0975 8.73337 11.4137C8.9143 12.7796 8.89302 14.1384 8.66597 15.4971C8.44601 16.8098 8.01141 18.0888 7.40653 19.2755C6.78391 20.4977 5.95374 21.6223 4.98521 22.5944C4.68721 22.8924 4.22068 22.8693 3.9209 22.5944C3.62112 22.3194 3.6424 21.8085 3.9209 21.53C4.3028 21.1481 4.65991 20.7414 4.99061 20.3147C5.59268 19.5054 6.09536 18.6248 6.48791 17.6945C6.74382 17.0538 6.94876 16.3896 7.0961 15.7153C7.16173 15.4155 7.21672 15.1122 7.25929 14.8071C7.26025 14.7998 7.26155 14.7921 7.26302 14.7842C7.26347 14.7802 7.264 14.7754 7.26461 14.7699L7.26994 14.722C7.28058 14.651 7.28767 14.5801 7.29477 14.5091C7.31073 14.3512 7.32315 14.1934 7.33379 14.0337C7.37459 13.4146 7.3675 12.7938 7.31605 12.1782C7.30687 12.0467 7.29242 11.9152 7.27724 11.7836C7.28448 11.8386 7.27853 11.7843 7.27348 11.749C7.27278 11.7436 7.27208 11.7383 7.27138 11.7331C7.2709 11.7289 7.27042 11.7248 7.26993 11.7206L7.26993 11.7206C7.26816 11.71 7.26683 11.6989 7.2655 11.6878C7.26417 11.6767 7.26284 11.6656 7.26106 11.655C7.2623 11.665 7.26346 11.6745 7.26456 11.6833C7.26222 11.6666 7.25987 11.6502 7.25753 11.6338L7.25751 11.6337L7.22558 11.4208C7.17414 11.1104 7.11383 10.8017 7.0411 10.4984C6.89959 9.90475 6.71443 9.32452 6.48888 8.761C6.09618 7.82982 5.59314 6.94844 4.99057 6.13846ZM4.90359 6.02295C4.92082 6.04555 4.93796 6.06821 4.95503 6.09092C4.93788 6.06854 4.92074 6.04606 4.90359 6.02295ZM6.54442 8.89483L6.51587 8.82551C6.52545 8.84859 6.53497 8.87169 6.54442 8.89483ZM7.26456 11.6833C7.27072 11.7331 7.27476 11.7648 7.27724 11.7836C7.2753 11.7668 7.27334 11.7499 7.27138 11.7331C7.26911 11.716 7.26684 11.6995 7.26456 11.6833ZM7.26336 14.7824C7.26452 14.7762 7.26578 14.77 7.26704 14.7636C7.27309 14.7334 7.2794 14.7019 7.27703 14.6758C7.27599 14.6748 7.26758 14.7462 7.26336 14.7824ZM6.54443 17.5584C6.53497 17.5815 6.52544 17.6047 6.51585 17.6278L6.54443 17.5584ZM4.90361 20.4302C4.92079 20.4071 4.93796 20.3846 4.95514 20.3622C4.93804 20.3849 4.92087 20.4076 4.90361 20.4302Z" fill="white" fill-opacity="0.4"/>
</svg>
